<svg width="1034" height="979" viewBox="0 0 1034 979" fill="none" xmlns="http://www.w3.org/2000/svg">
<path opacity="0.5" d="M318.635 -95.3058C198.697 5.21658 180.111 195.298 98.8809 335.527C70.6041 384.322 34.0667 427.992 15.0036 482.123C-28.7619 606.026 31.472 746.572 112.093 844.981C150.536 891.927 195.44 934.936 249.77 954.723C291.55 969.94 336.348 970.574 380.325 970.971L1150.79 978.896C1236.81 979.768 1332.39 976.624 1394.24 910.208C1436.87 864.478 1454.18 797.692 1468.88 733.944C1486.93 655.613 1503.3 570.546 1475.2 495.94C1443.11 410.582 1361.96 362.21 1311.55 288.555C1229.74 169.223 1231.62 -11.2686 1127.44 -106.534C1078.8 -150.996 1014.62 -168.432 952.083 -177.15C834.184 -193.609 722.506 -162.541 606.725 -166.873C507.756 -170.572 400.739 -164.126 318.635 -95.3058Z" fill="#E7ECFF"/>
<path opacity="0.24" d="M560.078 800.613C513.629 805.283 465.755 810.419 424.881 833.264C419.41 836.328 413.856 839.942 410.837 845.458C404.78 856.553 411.655 871.177 422.324 877.855C432.993 884.533 446.156 885.294 458.712 885.844C682.279 895.586 906.181 891.761 1129.94 887.957C1194.92 886.858 1260.92 885.59 1323.19 866.718C1334.39 863.337 1346.69 858.265 1350.9 847.212C1356.42 832.757 1343.84 816.737 1329.17 812.236C1314.5 807.735 1298.84 811.095 1283.66 813.06C1230.97 819.886 1177.81 809.446 1125.35 801.099C1022.64 784.784 916.075 771.512 812.047 769.039C776.581 768.215 746.293 780.515 711.582 785.376C661.465 792.434 610.467 795.541 560.078 800.613Z" fill="#505F98"/>
<rect x="787.837" y="685" width="98.0679" height="82" fill="#505F98"/>
<rect x="787.837" y="685" width="98.0679" height="82" fill="url(#paint0_linear_3_53)"/>
<rect x="579.693" y="343" width="518.359" height="355" rx="9.37" fill="#505F98"/>
<path opacity="0.65" d="M1081.04 372.438V666.562C1081.06 671.443 1079.13 676.129 1075.69 679.588C1072.25 683.047 1067.58 684.994 1062.7 685H611.039C606.165 684.989 601.494 683.04 598.056 679.582C594.617 676.125 592.691 671.441 592.702 666.562V372.438C592.691 367.559 594.617 362.875 598.056 359.418C601.494 355.96 606.165 354.011 611.039 354H1062.7C1067.58 354.006 1072.25 355.953 1075.69 359.412C1079.13 362.871 1081.06 367.557 1081.04 372.438Z" fill="url(#paint1_linear_3_53)"/>
<rect x="742.806" y="757" width="206.143" height="21" fill="#505F98"/>
<rect x="787.837" y="745" width="98.0679" height="12" fill="url(#paint2_linear_3_53)"/>
<path fill-rule="evenodd" clip-rule="evenodd" d="M942.945 171.241V191.715L930.235 191.819C928.999 201.346 925.375 210.41 919.697 218.181L930.552 229.351L915.672 243.6L904.986 232.578C898.397 237.062 890.962 240.17 883.13 241.714V255H862.559V242.029C853.774 240.76 845.402 237.497 838.089 232.494L829.153 241.316L814.589 226.647L823.462 217.993C817.876 210.219 814.313 201.191 813.092 191.715H798.845V171.241H813.598C815.427 163.093 819.024 155.441 824.137 148.819L815.896 140.332L830.776 126.082L839.206 134.82C846.176 130.214 854.1 127.228 862.39 126.082V112H882.961V126.396C891.33 128.055 899.239 131.493 906.145 136.476L916.683 126.166L931.163 140.709L920.625 151.187C924.756 157.267 927.689 164.073 929.266 171.241H942.945ZM836.804 184.15C836.78 203.211 852.303 218.682 871.474 218.705C880.686 218.733 889.529 215.113 896.051 208.644C902.572 202.176 906.235 193.392 906.229 184.233C906.253 165.172 890.73 149.701 871.559 149.678C852.387 149.655 836.827 165.088 836.804 184.15Z" fill="#505F98"/>
<path fill-rule="evenodd" clip-rule="evenodd" d="M1019 205.354L1018.08 217.396L1010.57 216.938C1009.44 222.475 1006.94 227.641 1003.28 231.958L1009.15 239.021L999.798 246.729L994.039 239.792C989.984 242.13 985.498 243.625 980.85 244.188L980.245 252L968.204 251.104L968.788 243.479C963.703 242.344 958.947 240.056 954.89 236.792L949.256 241.583L941.388 232.396L946.96 227.688C944.032 222.876 942.346 217.414 942.056 211.792L933.938 211.167L934.836 199.146L943.454 199.792C944.878 195.085 947.305 190.743 950.57 187.062L946.125 181.708L955.474 174L960.003 179.5C964.274 177.095 969.029 175.672 973.922 175.333L974.548 167L986.589 167.896L985.942 176.375C990.749 177.714 995.207 180.081 999.005 183.312L1005.62 177.708L1013.47 186.896L1006.79 192.583C1008.96 196.339 1010.37 200.477 1010.96 204.771L1019 205.354ZM956.3 208.243C955.445 219.436 963.837 229.203 975.049 230.062C980.443 230.487 985.784 228.747 989.889 225.228C993.994 221.708 996.524 216.7 996.919 211.312C997.761 200.119 989.358 190.361 978.146 189.514C966.934 188.666 957.155 197.05 956.3 208.243Z" fill="#505F98"/>
<path d="M1081.04 372.513V379H592.702V372.513C592.691 367.614 594.617 362.912 598.056 359.44C601.495 355.968 606.166 354.011 611.041 354H1062.7C1067.58 354.006 1072.25 355.961 1075.69 359.434C1079.13 362.907 1081.06 367.613 1081.04 372.513Z" fill="url(#paint3_linear_3_53)"/>
<rect x="602.709" y="411" width="47.0326" height="227" fill="url(#paint4_linear_3_53)"/>
<rect x="720.791" y="427" width="221.153" height="209" fill="url(#paint5_linear_3_53)"/>
<rect x="771.826" y="525" width="7.00485" height="9" fill="url(#paint6_linear_3_53)"/>
<rect x="771.826" y="483" width="7.00485" height="9" fill="url(#paint7_linear_3_53)"/>
<rect x="676.76" y="525" width="7.00485" height="9" fill="url(#paint8_linear_3_53)"/>
<rect x="676.76" y="483" width="7.00485" height="9" fill="url(#paint9_linear_3_53)"/>
<rect x="771.826" y="438" width="7.00485" height="9" fill="url(#paint10_linear_3_53)"/>
<rect x="677.761" y="438" width="7.00485" height="9" fill="url(#paint11_linear_3_53)"/>
<rect x="725.794" y="438" width="7.00485" height="9" fill="url(#paint12_linear_3_53)"/>
<rect x="725.794" y="525" width="7.00485" height="9" fill="url(#paint13_linear_3_53)"/>
<path fill-rule="evenodd" clip-rule="evenodd" d="M689.769 523H767.823V450H689.769V523ZM759.961 515.282H697.631V457.656H759.961V515.282Z" fill="#505F98"/>
<path fill-rule="evenodd" clip-rule="evenodd" d="M689.769 523H767.823V450H689.769V523ZM759.961 515.282H697.631V457.656H759.961V515.282Z" fill="url(#paint14_linear_3_53)"/>
<rect x="973.966" y="391" width="100.069" height="100" fill="url(#paint15_linear_3_53)"/>
<rect x="973.966" y="501" width="100.069" height="100" fill="url(#paint16_linear_3_53)"/>
<rect opacity="0.65" x="602.709" y="410" width="47.0326" height="13" fill="url(#paint17_linear_3_53)"/>
<path d="M713.428 571C712.754 567.436 712.329 562.39 713.623 562.043C716.351 561.275 713.428 571 713.428 571Z" fill="#28353D"/>
<path d="M856.687 766.507C856.201 779.102 846.438 825.388 846.121 838.004C846.121 842.202 847.241 848.647 845.889 852.698C843.1 861.284 833.211 860.108 831.922 855.049L831.436 852.53C826.85 828.012 834.225 800.198 831.436 768.186C829.766 748.643 821.99 710.963 816.898 710.711C814.214 710.711 752.957 839.851 747.632 847.807C745.011 851.817 737.637 851.187 734.066 854.42C730.495 857.652 763.818 756.515 777.785 703.07C781.043 692.039 783.166 680.709 784.124 669.252C784.505 662.64 782.37 660.415 788.477 658.463C792.703 657.119 798.556 657.497 803.078 657.182C808.002 656.804 853.792 656.72 853.792 659.953C853.348 677.502 857.87 737.412 856.687 766.507Z" fill="#606161"/>
<path d="M856.687 766.507C856.201 779.102 846.438 825.388 846.121 838.004C846.121 842.202 847.241 848.647 845.889 852.698C843.1 861.284 833.211 860.108 831.922 855.049L831.436 852.53C826.85 828.012 834.225 800.198 831.436 768.186C829.766 748.643 821.99 710.963 816.898 710.711C814.214 710.711 752.957 839.851 747.632 847.807C745.011 851.817 737.637 851.187 734.066 854.42C730.495 857.652 763.818 756.515 777.785 703.07C781.043 692.039 783.166 680.709 784.124 669.252C784.505 662.64 782.37 660.415 788.477 658.463C792.703 657.119 798.556 657.497 803.078 657.182C808.002 656.804 853.792 656.72 853.792 659.953C853.348 677.502 857.87 737.412 856.687 766.507Z" fill="url(#paint18_linear_3_53)"/>
<path d="M802.614 498.148C802.229 494.163 800.346 492 798.506 492C796.666 492 795.533 494.12 795.918 498.148C796.005 501.122 798.249 503.597 801.223 504C803.084 504 803.02 502.134 802.614 498.148Z" fill="#FFCD9C"/>
<path d="M835.008 498.159C835.258 494.166 837.094 492 838.994 492C840.893 492 842.124 494.124 841.832 498.159C841.805 501.173 839.56 503.687 836.615 504C834.736 504 834.715 502.152 835.008 498.159Z" fill="#FFCD9C"/>
<path d="M838.732 515.672C838.473 517.777 829.558 527 819.413 527C809.267 527 800.892 518.577 799.122 515.208C797.352 511.839 804.475 468.505 808.598 464.884C812.721 461.262 829.429 463.641 830.832 465.558C834.199 470.085 839.833 507.27 838.732 515.672Z" fill="#F4AD7D"/>
<path d="M834.538 483.977C833.159 484.639 827.743 470.842 826.607 468.525C825.472 466.208 825.654 463.829 827.033 463.167C828.413 462.505 830.441 463.871 831.577 466.167C832.713 468.463 835.897 483.336 834.538 483.977Z" fill="#FFCD9C"/>
<path d="M804.168 481.987C802.737 481.501 806.525 467.179 807.351 464.703C808.177 462.228 810.031 460.599 811.381 461.086C812.731 461.573 813.295 463.984 812.469 466.481C811.643 468.977 805.518 482.474 804.168 481.987Z" fill="#FFCD9C"/>
<path d="M809.845 514H831.608L834.87 534.622C823.014 541.005 816.101 540.301 806.85 533.214L809.845 514Z" fill="#F4AD7D"/>
<path d="M818.859 518.13C818.859 517.75 819.764 517.43 820.86 517.43C821.956 517.43 822.861 517.75 822.861 518.13C822.861 518.51 821.98 518.57 820.86 518.57C819.74 518.57 818.859 518.53 818.859 518.13Z" fill="#F4AD7D"/>
<path d="M839.892 508.808C840.716 503.894 842.06 468.708 838.764 464.051C835.469 459.394 815.741 456.381 812.749 457.108C806.05 458.731 807.221 463.517 807.221 463.517C805.23 463.547 803.28 464.084 801.563 465.076C799.264 466.615 794.43 488.79 798.289 505.56C800.023 513.102 806.852 519.66 818.646 519.981C833.171 520.365 838.895 514.896 839.892 508.808Z" fill="#606161"/>
<path d="M812.831 458.762C814.39 457.448 816.41 456.828 818.43 457.041C824.563 457.008 830.647 458.14 836.365 460.376C839.535 461.488 842.414 463.311 844.785 465.708C847.172 468.173 848.271 471.627 847.753 475.034C846.7 480.047 841.438 483.148 839.712 487.97C838.322 491.837 839.312 495.575 839.354 499.463C839.382 502.606 839.156 505.746 838.68 508.852C837.712 514.906 832.176 520.344 817.967 519.983C806.516 519.664 799.885 513.143 798.201 505.644C795.921 493.198 796.519 480.389 799.948 468.215C806.12 469.648 812.434 470.361 818.767 470.339C825.482 470.395 832.178 469.611 838.701 468.002C839.817 474.503 839.796 487.524 839.438 497.253" fill="#606161"/>
<path d="M777.702 530.954C774.268 531.241 770.96 532.384 768.077 534.28C763.139 538.171 762.764 545.43 762.847 551.748C762.678 560.501 763.285 569.252 764.66 577.897C766.139 585.826 768.827 593.441 771.035 601.202C774.516 613.831 776.344 626.862 776.473 639.966C776.473 647.162 776.348 655.07 780.827 660.697C785.723 666.806 794.39 667.998 802.182 668.438C813.245 669.086 824.349 669.17 835.412 668.709C842.829 668.375 850.725 667.643 856.6 663.082C861.288 659.442 872.267 536.288 863.746 533.171C855.225 530.054 846.058 529.259 837.016 528.506C816.745 526.791 797.661 525.431 777.702 530.954Z" fill="#505F98"/>
<path d="M841.521 786.291C840.435 800.255 837.843 851 837.843 851L831.238 850.77C826.702 826.39 833.997 798.732 831.238 766.899C829.586 747.465 821.895 709.996 816.857 709.746C818.362 697.221 826.827 699.1 826.827 699.1C832.984 708.294 838.294 718.026 842.692 728.178C847.729 741.37 842.629 772.263 841.521 786.291Z" fill="url(#paint19_linear_3_53)"/>
<path d="M717.164 852.024C716.133 852.786 715.35 853.83 714.912 855.025C714.678 856.009 714.773 857.04 715.183 857.965C716.35 860.326 718.56 862.019 721.168 862.55C723.744 863.04 726.383 863.131 728.987 862.818L737.328 862.262C739.45 862.212 741.555 861.873 743.583 861.255C745.614 860.627 747.289 859.198 748.212 857.308C748.704 855.916 748.895 854.438 748.775 852.969C748.775 846.164 746.357 840.634 738.808 842.299C730.902 843.765 723.474 847.102 717.164 852.024Z" fill="#505F98"/>
<path d="M855.703 855.063C856.65 855.759 857.369 856.709 857.77 857.797C857.984 858.682 857.9 859.611 857.53 860.446C856.467 862.584 854.438 864.114 852.047 864.579C849.69 865.035 847.273 865.121 844.888 864.834L837.316 864.325C835.389 864.284 833.478 863.985 831.636 863.435C829.779 862.864 828.25 861.566 827.415 859.853C826.967 858.595 826.789 857.26 826.893 855.932C826.893 849.785 829.069 844.72 836.01 846.288C843.206 847.619 849.964 850.63 855.703 855.063Z" fill="#505F98"/>
<path d="M864.89 533C864.89 533 897.606 552.163 907.432 576.389C917.257 600.614 875.252 659 875.252 659L866.263 649.814C866.263 649.814 888.188 605.759 884.799 594.74C881.409 583.721 868.13 573.452 868.13 573.452L864.89 533Z" fill="#505F98"/>
<path d="M771.826 570.859C771.826 570.859 726.338 591.24 707.853 581.238C689.368 571.237 708.398 521 708.398 521L720.777 525.202C720.777 525.202 710.433 550.815 722.267 554.618C734.101 558.421 769.56 533.438 769.56 533.438L771.826 570.859Z" fill="#505F98"/>
<path d="M857.466 657.976C856.158 658.826 855.097 659.968 854.381 661.297C853.952 662.425 853.797 663.629 853.928 664.819C853.849 667.709 855.163 670.479 857.509 672.367C859.158 673.25 861.005 673.76 862.903 673.857C864.066 674.048 865.256 674.048 866.419 673.857C867.606 673.646 868.597 672.888 869.051 671.844C869.206 671.183 869.271 670.507 869.245 669.831C869.396 666.51 871.899 663.793 873.97 661.076C874.47 660.551 874.793 659.9 874.897 659.204C874.885 658.434 874.597 657.69 874.078 657.091C872.675 655.199 869.202 651.717 866.419 652.018C863.636 652.32 859.624 656.326 857.466 657.976Z" fill="#F4AD7D"/>
<path d="M728.585 513.435C729.178 512.611 729.582 511.679 729.772 510.698C729.923 509.683 729.386 508.687 728.431 508.211C726.915 507.647 725.114 509.13 723.62 508.504C723.114 508.235 722.69 507.846 722.389 507.375C720.625 504.945 719.613 502.093 719.467 499.143C719.553 497.571 719.405 495.995 719.028 494.463C718.583 492.886 717 491.849 715.292 492.018C713.886 492.331 713.095 493.689 712.216 494.776C711.338 495.863 709.58 497.158 708.437 498.516C706.487 501.307 705.37 504.55 705.208 507.898C704.592 512.077 704.197 516.861 707.273 519.87C709.646 522.189 716.874 524.927 720.192 523.694C723.861 522.315 726.74 516.444 728.585 513.435Z" fill="#F4AD7D"/>
<defs>
<linearGradient id="paint0_linear_3_53" x1="909.972" y1="753.322" x2="920.393" y2="626.584" gradientUnits="userSpaceOnUse">
<stop stop-color="#010101" stop-opacity="0.01"/>
<stop offset="0.95" stop-color="#010101"/>
</linearGradient>
<linearGradient id="paint1_linear_3_53" x1="508.259" y1="290.517" x2="505.544" y2="740.071" gradientUnits="userSpaceOnUse">
<stop stop-color="white" stop-opacity="0.01"/>
<stop offset="0.07" stop-color="white" stop-opacity="0.22"/>
<stop offset="0.16" stop-color="white" stop-opacity="0.45"/>
<stop offset="0.25" stop-color="white" stop-opacity="0.65"/>
<stop offset="0.33" stop-color="white" stop-opacity="0.8"/>
<stop offset="0.4" stop-color="white" stop-opacity="0.91"/>
<stop offset="0.46" stop-color="white" stop-opacity="0.98"/>
<stop offset="0.51" stop-color="white"/>
</linearGradient>
<linearGradient id="paint2_linear_3_53" x1="254.605" y1="728.073" x2="254.705" y2="870.306" gradientUnits="userSpaceOnUse">
<stop stop-color="#010101" stop-opacity="0.01"/>
<stop offset="0.95" stop-color="#010101"/>
</linearGradient>
<linearGradient id="paint3_linear_3_53" x1="1407.02" y1="473.966" x2="1441.2" y2="66.855" gradientUnits="userSpaceOnUse">
<stop stop-color="white" stop-opacity="0.01"/>
<stop offset="0.07" stop-color="white" stop-opacity="0.22"/>
<stop offset="0.16" stop-color="white" stop-opacity="0.45"/>
<stop offset="0.25" stop-color="white" stop-opacity="0.65"/>
<stop offset="0.33" stop-color="white" stop-opacity="0.8"/>
<stop offset="0.4" stop-color="white" stop-opacity="0.91"/>
<stop offset="0.46" stop-color="white" stop-opacity="0.98"/>
<stop offset="0.51" stop-color="white"/>
</linearGradient>
<linearGradient id="paint4_linear_3_53" x1="580.138" y1="363.87" x2="718.145" y2="732.142" gradientUnits="userSpaceOnUse">
<stop stop-color="white" stop-opacity="0.01"/>
<stop offset="0.07" stop-color="white" stop-opacity="0.22"/>
<stop offset="0.16" stop-color="white" stop-opacity="0.45"/>
<stop offset="0.25" stop-color="white" stop-opacity="0.65"/>
<stop offset="0.33" stop-color="white" stop-opacity="0.8"/>
<stop offset="0.4" stop-color="white" stop-opacity="0.91"/>
<stop offset="0.46" stop-color="white" stop-opacity="0.98"/>
<stop offset="0.51" stop-color="white"/>
</linearGradient>
<linearGradient id="paint5_linear_3_53" x1="683.668" y1="386.99" x2="680.343" y2="669.698" gradientUnits="userSpaceOnUse">
<stop stop-color="white" stop-opacity="0.01"/>
<stop offset="0.07" stop-color="white" stop-opacity="0.22"/>
<stop offset="0.16" stop-color="white" stop-opacity="0.45"/>
<stop offset="0.25" stop-color="white" stop-opacity="0.65"/>
<stop offset="0.33" stop-color="white" stop-opacity="0.8"/>
<stop offset="0.4" stop-color="white" stop-opacity="0.91"/>
<stop offset="0.46" stop-color="white" stop-opacity="0.98"/>
<stop offset="0.51" stop-color="white"/>
</linearGradient>
<linearGradient id="paint6_linear_3_53" x1="999.503" y1="578.704" x2="1018.69" y2="0.785033" gradientUnits="userSpaceOnUse">
<stop stop-color="#010101" stop-opacity="0.01"/>
<stop offset="0.95" stop-color="#010101"/>
</linearGradient>
<linearGradient id="paint7_linear_3_53" x1="998.651" y1="579.045" x2="1017.84" y2="1.12546" gradientUnits="userSpaceOnUse">
<stop stop-color="#010101" stop-opacity="0.01"/>
<stop offset="0.95" stop-color="#010101"/>
</linearGradient>
<linearGradient id="paint8_linear_3_53" x1="904.472" y1="576.354" x2="923.688" y2="-1.56477" gradientUnits="userSpaceOnUse">
<stop stop-color="#010101" stop-opacity="0.01"/>
<stop offset="0.95" stop-color="#010101"/>
</linearGradient>
<linearGradient id="paint9_linear_3_53" x1="903.62" y1="576.694" x2="922.836" y2="-1.22434" gradientUnits="userSpaceOnUse">
<stop stop-color="#010101" stop-opacity="0.01"/>
<stop offset="0.95" stop-color="#010101"/>
</linearGradient>
<linearGradient id="paint10_linear_3_53" x1="997.712" y1="580.545" x2="1016.93" y2="2.62672" gradientUnits="userSpaceOnUse">
<stop stop-color="#010101" stop-opacity="0.01"/>
<stop offset="0.95" stop-color="#010101"/>
</linearGradient>
<linearGradient id="paint11_linear_3_53" x1="903.682" y1="578.236" x2="922.869" y2="0.316944" gradientUnits="userSpaceOnUse">
<stop stop-color="#010101" stop-opacity="0.01"/>
<stop offset="0.95" stop-color="#010101"/>
</linearGradient>
<linearGradient id="paint12_linear_3_53" x1="951.672" y1="579.396" x2="970.888" y2="1.49907" gradientUnits="userSpaceOnUse">
<stop stop-color="#010101" stop-opacity="0.01"/>
<stop offset="0.95" stop-color="#010101"/>
</linearGradient>
<linearGradient id="paint13_linear_3_53" x1="953.488" y1="576.843" x2="972.704" y2="-1.07541" gradientUnits="userSpaceOnUse">
<stop stop-color="#010101" stop-opacity="0.01"/>
<stop offset="0.95" stop-color="#010101"/>
</linearGradient>
<linearGradient id="paint14_linear_3_53" x1="608.41" y1="591.399" x2="840.643" y2="808.094" gradientUnits="userSpaceOnUse">
<stop stop-color="white" stop-opacity="0.01"/>
<stop offset="0.07" stop-color="white" stop-opacity="0.22"/>
<stop offset="0.16" stop-color="white" stop-opacity="0.45"/>
<stop offset="0.25" stop-color="white" stop-opacity="0.65"/>
<stop offset="0.33" stop-color="white" stop-opacity="0.8"/>
<stop offset="0.4" stop-color="white" stop-opacity="0.91"/>
<stop offset="0.46" stop-color="white" stop-opacity="0.98"/>
<stop offset="0.51" stop-color="white"/>
</linearGradient>
<linearGradient id="paint15_linear_3_53" x1="957.277" y1="371.864" x2="955.492" y2="507.026" gradientUnits="userSpaceOnUse">
<stop stop-color="white" stop-opacity="0.01"/>
<stop offset="0.07" stop-color="white" stop-opacity="0.22"/>
<stop offset="0.16" stop-color="white" stop-opacity="0.45"/>
<stop offset="0.25" stop-color="white" stop-opacity="0.65"/>
<stop offset="0.33" stop-color="white" stop-opacity="0.8"/>
<stop offset="0.4" stop-color="white" stop-opacity="0.91"/>
<stop offset="0.46" stop-color="white" stop-opacity="0.98"/>
<stop offset="0.51" stop-color="white"/>
</linearGradient>
<linearGradient id="paint16_linear_3_53" x1="957.277" y1="481.864" x2="955.492" y2="617.026" gradientUnits="userSpaceOnUse">
<stop stop-color="white" stop-opacity="0.01"/>
<stop offset="0.07" stop-color="white" stop-opacity="0.22"/>
<stop offset="0.16" stop-color="white" stop-opacity="0.45"/>
<stop offset="0.25" stop-color="white" stop-opacity="0.65"/>
<stop offset="0.33" stop-color="white" stop-opacity="0.8"/>
<stop offset="0.4" stop-color="white" stop-opacity="0.91"/>
<stop offset="0.46" stop-color="white" stop-opacity="0.98"/>
<stop offset="0.51" stop-color="white"/>
</linearGradient>
<linearGradient id="paint17_linear_3_53" x1="593.437" y1="407.281" x2="593.42" y2="425.481" gradientUnits="userSpaceOnUse">
<stop stop-color="white" stop-opacity="0.01"/>
<stop offset="0.07" stop-color="white" stop-opacity="0.22"/>
<stop offset="0.16" stop-color="white" stop-opacity="0.45"/>
<stop offset="0.25" stop-color="white" stop-opacity="0.65"/>
<stop offset="0.33" stop-color="white" stop-opacity="0.8"/>
<stop offset="0.4" stop-color="white" stop-opacity="0.91"/>
<stop offset="0.46" stop-color="white" stop-opacity="0.98"/>
<stop offset="0.51" stop-color="white"/>
</linearGradient>
<linearGradient id="paint18_linear_3_53" x1="858.015" y1="743.512" x2="761.922" y2="578.732" gradientUnits="userSpaceOnUse">
<stop stop-color="#010101" stop-opacity="0.01"/>
<stop offset="0.95" stop-color="#010101"/>
</linearGradient>
<linearGradient id="paint19_linear_3_53" x1="859.037" y1="281.892" x2="686.151" y2="286.761" gradientUnits="userSpaceOnUse">
<stop stop-color="#010101" stop-opacity="0.01"/>
<stop offset="0.95" stop-color="#010101"/>
</linearGradient>
</defs>
</svg>
